<svg width="48" height="48" viewBox="0 0 48 48" fill="none" xmlns="http://www.w3.org/2000/svg">
<path d="M31.3863 39.657C31.3221 39.7732 31.2412 39.8794 31.1463 39.9723C31.048 40.0685 30.9311 40.1437 30.8028 40.1935C30.6883 40.2373 30.5676 40.2627 30.4452 40.2687C30.3134 40.2687 30.1816 40.2687 30.0546 40.2687C29.8522 40.2076 29.6546 40.1511 29.4522 40.0805L28.8404 39.784C28.6428 39.6993 28.4263 39.5535 28.271 39.4687C28.1157 39.384 28.0452 39.3323 27.9369 39.257C27.6499 39.0735 27.3487 38.9229 27.0804 38.7158C26.8122 38.5087 26.6099 38.3535 26.3887 38.1558L25.7534 37.5346C25.551 37.3135 25.344 37.1017 25.151 36.8805C24.9581 36.6593 24.7557 36.4429 24.5722 36.2123C24.2334 35.817 23.8993 35.417 23.5981 34.9887C23.1786 34.4412 22.9137 33.7912 22.831 33.1064C22.8028 32.8993 22.9487 32.8993 23.1604 33.0076C23.427 33.1588 23.6632 33.3583 23.8569 33.5958C24.5113 34.6322 25.3171 35.5649 26.2475 36.3629C26.5369 36.6208 26.8523 36.8479 27.1887 37.0405C27.3581 37.1393 27.5181 37.2476 27.6828 37.3511L28.1534 37.657C28.431 37.8264 28.751 38.0193 28.991 38.1558C29.1133 38.239 29.2406 38.3144 29.3722 38.3817C29.4514 38.4317 29.5392 38.4668 29.631 38.4852C29.6958 38.5049 29.765 38.4724 29.791 38.4099C29.8123 38.3539 29.8265 38.2954 29.8334 38.2358C29.8376 38.105 29.8281 37.9741 29.8052 37.8452C29.8052 37.7182 29.6734 37.2335 29.5699 36.8523C29.4663 36.4711 29.3393 36.0617 29.2075 35.6711C28.9556 35.0682 28.7356 34.4525 28.5487 33.8264C28.5021 33.6833 28.466 33.537 28.4404 33.3887C28.3961 33.1745 28.4277 32.9516 28.5299 32.7582C28.6133 32.616 28.7539 32.5166 28.9157 32.4852C28.9941 32.4588 29.0743 32.4383 29.1557 32.424C29.424 32.424 29.6263 32.5982 29.824 32.8946C30.0734 33.3652 30.2946 33.8358 30.5675 34.3487C30.8404 34.8617 30.944 35.4311 31.1228 36.0052L31.3016 36.6593L31.3863 36.9982L31.4899 37.4687C31.6875 38.3299 31.7204 39.1582 31.4193 39.6758L31.3863 39.657Z" fill="#8C2155"/>
<path d="M11.4098 18.9887C12.0389 19.7976 12.7129 20.5706 13.4286 21.304L14.5298 22.4193L14.9251 22.8146C15.0891 22.9719 15.233 23.1489 15.3533 23.3416C15.4646 23.4985 15.5055 23.6946 15.4663 23.8828L15.2075 24.4005L14.798 24.8146L14.5392 25.0922C14.3933 25.2428 14.2522 25.3981 14.111 25.5628C13.5133 26.2358 12.9816 26.9746 12.4498 27.6993C11.5069 28.9857 10.6816 30.3544 9.98392 31.7887C9.80981 32.1464 9.64981 32.5087 9.51334 32.8758C9.37687 33.2428 9.29687 33.4311 9.2451 33.6052C9.17726 33.7786 9.15616 33.9669 9.18392 34.1511C9.22628 34.2593 9.34392 34.2122 9.40981 34.1511L9.63098 33.9958L11.0427 32.9981C11.6498 32.584 12.2663 32.184 12.8922 31.8075C13.7028 31.3183 14.5473 30.8874 15.4192 30.5181L16.0922 30.264C16.318 30.184 16.5627 30.1228 16.7792 30.0569C17.0117 29.9862 17.2519 29.9435 17.4945 29.9299C17.7348 29.8991 17.977 29.8849 18.2192 29.8875C18.8216 29.8875 18.7322 30.0099 18.2898 30.2875C18.1816 30.3628 18.0498 30.4381 17.9039 30.5369L17.4333 30.8805C17.0417 31.1289 16.6328 31.3491 16.2098 31.5393C15.3869 31.9173 14.5885 32.3463 13.8192 32.824C13.0286 33.3009 12.2522 33.7981 11.4898 34.3158C11.0663 34.6028 10.878 34.7393 9.98392 35.4028C9.8004 35.5346 9.62157 35.6334 9.44275 35.7511L9.30628 35.8405C9.27242 35.8689 9.23196 35.8883 9.18863 35.8969L8.97216 35.9487C8.85129 35.9757 8.72597 35.9757 8.6051 35.9487C8.47629 35.9367 8.35133 35.8982 8.23804 35.8358C7.99247 35.68 7.82217 35.4296 7.76745 35.144C7.73242 34.9897 7.71817 34.8315 7.7251 34.6734C7.7251 34.5793 7.7251 34.4993 7.7251 34.4005L7.77216 34.1087C7.84522 33.7133 7.95068 33.3245 8.08745 32.9464C8.15334 32.7393 8.19098 32.6687 8.23804 32.5417C8.2851 32.4146 8.33687 32.3111 8.38392 32.1981C9.34924 30.0124 10.5635 27.9454 12.0027 26.0381C12.3227 25.6334 12.6475 25.2334 12.9863 24.8475C13.1557 24.6546 13.3251 24.4569 13.4992 24.2734L13.7533 24.0005L13.8522 23.9064L13.9369 23.8264L13.9745 23.7887C13.9745 23.7887 13.9745 23.7558 13.9745 23.7416C13.9745 23.7275 13.8757 23.6287 13.8239 23.5722L13.0898 22.8428C12.5345 22.2922 11.9839 21.7228 11.4569 21.1346C10.3589 19.9466 9.41067 18.6285 8.63334 17.2099C8.33604 16.66 8.08725 16.0853 7.88981 15.4922C7.83804 15.3416 7.80039 15.1864 7.75804 15.0216C7.7081 14.8199 7.66883 14.6157 7.64039 14.4099C7.6124 14.204 7.59825 13.9965 7.59804 13.7887C7.60262 13.5957 7.62467 13.4036 7.66392 13.2146C7.69702 12.8715 7.86659 12.5561 8.13451 12.3393C8.47031 12.345 8.79723 12.448 9.07569 12.6358C9.41451 12.8381 9.76275 13.1064 10.1063 13.3511L10.8263 13.8687C12.2771 14.9054 13.8477 15.7634 15.5039 16.424C15.8616 16.5605 16.2145 16.6687 16.5769 16.7816C17.2451 16.9887 17.6875 17.0734 17.9886 17.1911C18.2327 17.2779 18.4544 17.4178 18.638 17.6005C18.7155 17.662 18.7879 17.7297 18.8545 17.8028C18.9345 17.9111 18.8263 18.024 18.5345 18.1416C18.1 18.3007 17.6337 18.3539 17.1745 18.2969C16.291 18.2074 15.4217 18.0098 14.5863 17.7087C13.7432 17.4132 12.9289 17.0415 12.1533 16.5981C11.391 16.1558 10.6522 15.6569 9.93687 15.1864L9.4051 14.8099L9.1651 14.6358V14.6969C9.19804 14.8287 9.23098 14.9605 9.27334 15.0969C9.35835 15.3701 9.45731 15.6387 9.56981 15.9016C10.064 17.0048 10.6966 18.0405 11.4522 18.984L11.4098 18.9887Z" fill="#8C2155"/>
<path d="M30.3839 9.37929C30.4018 9.34807 30.416 9.31492 30.4263 9.28047C30.4414 9.25276 30.4509 9.2224 30.4545 9.19105C30.4688 9.1663 30.4688 9.13581 30.4545 9.11105C30.4163 9.08846 30.3712 9.08013 30.3274 9.08752C30.2685 9.093 30.2102 9.10403 30.1533 9.12047H30.1063L29.9039 9.21929L29.471 9.44517C29.0004 9.704 28.5298 10.0381 28.0592 10.3299C26.3745 11.3665 24.798 12.5694 23.3533 13.9205C22.7193 14.5256 22.1398 15.1854 21.6216 15.8922C20.9392 16.7722 20.3651 17.7134 19.7392 18.6169C19.5416 18.8993 19.2686 18.7393 19.0945 18.3158C18.8823 17.7432 18.9146 17.1085 19.1839 16.5605C19.4654 16.0073 19.7796 15.4714 20.1251 14.9558C20.4801 14.4607 20.8668 13.9891 21.2827 13.544C22.0958 12.6381 22.9941 11.8123 23.9651 11.0781C25.1274 10.2028 26.2286 9.17223 27.4663 8.33458C27.8098 8.104 28.158 7.864 28.5157 7.67105C28.6945 7.56752 28.8733 7.464 29.0616 7.36517C29.3392 7.21458 29.6263 7.05929 29.9133 6.93694C30.4173 6.69802 30.9698 6.57884 31.5274 6.5887C31.7766 6.59543 32.0172 6.68112 32.2145 6.83341C32.3067 6.91516 32.3709 7.0238 32.398 7.144L32.5251 7.48282C32.5568 7.55656 32.5789 7.63405 32.591 7.71341V8.184C32.6117 8.34805 32.6117 8.51406 32.591 8.67811C32.5298 9.01223 32.5016 9.34635 32.4121 9.68047C32.3227 10.0146 32.2521 10.2122 32.1721 10.4569L31.9274 11.1252C31.3863 12.5369 30.7274 13.8734 30.2569 15.2428C29.9132 16.2721 29.7029 17.3412 29.631 18.424C29.631 18.6499 29.631 18.8946 29.631 19.0969C29.6074 19.9158 29.5416 20.1322 28.9674 20.3958C28.8404 20.4522 28.7133 20.5275 28.5863 20.5746C28.158 20.7346 27.7345 20.3722 27.598 19.5769C27.4558 18.4338 27.5438 17.2738 27.8569 16.1652C28.1394 15.0972 28.4995 14.0513 28.9345 13.0358C29.2482 12.3142 29.551 11.5942 29.8427 10.8758C29.998 10.5181 30.0969 10.1746 30.2239 9.82635L30.2945 9.57694L30.3274 9.44988V9.41694L30.3839 9.37929Z" fill="#8C2155"/>
<path d="M5.9416 13.6287C5.84492 13.1834 5.79446 12.7292 5.79101 12.2735C5.79956 12.0859 5.81841 11.8989 5.84748 11.7135C5.88983 11.5487 5.92748 11.384 5.97454 11.2193C6.08528 10.9716 6.24541 10.749 6.44513 10.5652C6.55704 10.4662 6.69092 10.3952 6.83571 10.3582C6.9494 10.3275 7.06626 10.3101 7.18395 10.3064C7.44158 10.3009 7.69858 10.3342 7.9463 10.4052C8.28447 10.5132 8.6096 10.6584 8.91571 10.8382L9.2263 11.0405L9.53689 11.2664L10.1628 11.737L10.7792 12.2076C10.8781 12.2876 10.9816 12.3629 11.0804 12.4476L11.2498 12.5887C12.7312 13.9111 14.3407 15.0824 16.0545 16.0852C16.8134 16.4951 17.6193 16.8111 18.4545 17.0264C19.4971 17.3254 20.568 17.5147 21.6498 17.5911C21.9934 17.6146 21.9981 17.8687 21.7251 18.1935C21.3023 18.6438 20.723 18.915 20.1063 18.9511C19.4611 18.9733 18.8151 18.9355 18.1769 18.8382C17.5504 18.7117 16.9374 18.5258 16.3463 18.2829C15.1928 17.8134 14.1008 17.205 13.0945 16.4711C12.5016 16.0382 11.8804 15.6335 11.2592 15.2287L10.3181 14.617L9.84748 14.3017L9.72983 14.2123L9.65924 14.1558C9.48983 14.0052 9.29218 13.8264 9.0616 13.6429C8.94485 13.5392 8.81114 13.4564 8.6663 13.3982C8.57218 13.3699 8.54395 13.4499 8.52513 13.5017C8.5004 13.5597 8.4876 13.6221 8.48748 13.6852C8.47581 13.7774 8.47581 13.8707 8.48748 13.9629C8.50998 14.1747 8.55092 14.3841 8.60983 14.5887C8.64277 14.697 8.68042 14.8099 8.71807 14.9276L8.83101 15.2099L8.96748 15.5346C9.5327 16.8617 10.2395 18.124 11.0757 19.2993C11.7403 20.1623 12.512 20.9371 13.3722 21.6052L13.9416 22.0099C14.5251 22.617 14.6192 22.8993 14.4639 23.4829C14.4263 23.6193 14.4075 23.7558 14.3651 23.8782C14.2888 24.0794 14.108 24.2223 13.8945 24.2499C13.5729 24.2875 13.2472 24.2354 12.9534 24.0993C12.4023 23.8902 11.8949 23.5807 11.4569 23.1864C11.0207 22.8215 10.6117 22.4251 10.2334 22.0005C9.48395 21.1465 8.81742 20.2231 8.24277 19.2429C7.81197 18.5155 7.42233 17.7645 7.07571 16.9935C6.9863 16.8005 6.9016 16.6076 6.81689 16.4099L6.69454 16.1276L6.54866 15.7605C6.27566 15.0651 6.05235 14.3511 5.88042 13.624L5.9416 13.6287Z" fill="#8C2155"/>
<path d="M28.7604 35.1769C28.1675 33.7652 27.6075 32.3958 27.0616 30.8569C26.9465 30.5379 26.8491 30.2127 26.7698 29.8828C26.684 29.5759 26.6335 29.2601 26.6193 28.9417C26.6025 28.6588 26.636 28.3752 26.7181 28.104C26.7544 27.9756 26.8099 27.8534 26.8828 27.7417C26.8828 27.7417 26.8828 27.6805 26.9487 27.6664C26.9646 27.6338 26.9853 27.6036 27.0098 27.5769C27.0537 27.5281 27.1026 27.4839 27.1557 27.4452C27.6484 27.128 28.2339 26.987 28.8169 27.0452C29.1416 27.0452 29.4993 27.0452 29.8004 27.0828L30.431 27.1252C31.5134 27.2005 32.5722 27.1911 33.6169 27.1911C34.8032 27.2104 35.9881 27.1016 37.151 26.8664C37.4287 26.8052 37.7063 26.7299 37.9746 26.6452L38.3698 26.504L38.6522 26.3864C38.8862 26.288 39.1013 26.1495 39.2875 25.9769C39.3983 25.8839 39.4922 25.7725 39.5651 25.6475C39.5651 25.5722 39.4757 25.5534 39.4193 25.5299C39.3582 25.5071 39.2952 25.4898 39.231 25.4781C39.104 25.4452 38.9675 25.4217 38.8263 25.3981L38.3275 25.3181C36.6287 25.0781 34.8922 24.8475 33.1981 24.4334C32.1013 24.152 31.0355 23.761 30.0169 23.2664C28.9816 22.7654 28.0532 22.0686 27.2828 21.2146C26.8122 20.6546 27.0993 20.5746 27.6969 20.744C28.2946 20.9134 29.2781 21.2522 30.351 21.6852C31.2717 22.0519 32.2249 22.3308 33.1981 22.5181C34.1816 22.7205 35.1698 22.9417 36.1863 23.0875C36.6946 23.1675 37.2028 23.2334 37.7204 23.304L38.5016 23.4028L39.1369 23.4781C39.391 23.4781 39.6451 23.5299 39.8946 23.5628C40.3593 23.6111 40.818 23.7057 41.264 23.8452C41.5676 23.949 41.8386 24.1307 42.0498 24.3722C42.1392 24.4654 42.2138 24.5718 42.271 24.6875C42.3497 24.8311 42.381 24.9958 42.3604 25.1581C42.3374 25.4842 42.2233 25.7973 42.031 26.0617C41.8522 26.3064 41.6404 26.5322 41.4287 26.7817C41.0396 27.1678 40.6069 27.5074 40.1393 27.7934L39.7675 28.0099C39.7052 28.0481 39.6408 28.0827 39.5746 28.1134L39.4051 28.1981C39.231 28.2781 39.0522 28.3534 38.8734 28.424C38.1744 28.6958 37.4533 28.9067 36.7181 29.0546C35.3 29.3319 33.8571 29.4628 32.4122 29.4452C31.6357 29.4452 30.8687 29.4075 30.111 29.3746C29.8898 29.3746 29.8051 29.3746 29.7487 29.3746H29.3157C29.2498 29.3746 29.1463 29.3746 29.1134 29.4405C29.0812 29.5798 29.0812 29.7247 29.1134 29.864L29.1651 30.0852L29.1934 30.1981L29.2687 30.4428C29.4898 31.1299 29.7393 31.8217 30.0404 32.5087C30.7463 34.2028 31.5181 35.8875 32.2757 37.5911C32.6287 38.4193 33.1746 39.5205 33.2546 40.2922C33.2705 40.4723 33.2705 40.6534 33.2546 40.8334C33.2586 41.0103 33.1887 41.1809 33.0616 41.304C32.7131 41.5086 32.3123 41.6068 31.9087 41.5864C30.9655 41.5235 30.0457 41.2655 29.2075 40.8287C28.5383 40.5064 27.8921 40.1385 27.2734 39.7275C25.333 38.5202 23.6544 36.9361 22.3369 35.0687C22.0426 34.6399 21.7829 34.1883 21.5604 33.7181C21.2782 33.0721 21.1447 32.3709 21.1698 31.6664C21.1777 31.29 21.3496 30.9359 21.6404 30.6969C21.748 30.589 21.8681 30.4942 21.9981 30.4146C22.4169 30.2264 22.784 30.8852 23.3016 31.9205C23.4146 32.1087 23.5087 32.2969 23.6216 32.4758L23.7957 32.7487C23.8428 32.8428 23.8993 32.9322 23.9557 33.0217C24.1701 33.3911 24.4058 33.7478 24.6616 34.0899C25.1899 34.7956 25.7805 35.4523 26.4263 36.0522C27.0845 36.6727 27.7928 37.2378 28.544 37.7417C28.9204 37.9864 29.3063 38.2122 29.6969 38.4428C29.7957 38.4993 29.8946 38.5464 29.9934 38.5981L30.1346 38.6687C30.1346 38.6687 30.1628 38.7017 30.1722 38.6687C30.1722 38.6687 30.1722 38.6687 30.1722 38.6264L30.064 38.3722L29.5934 37.3417L28.6522 35.2617L28.7604 35.1769Z" fill="#8C2155"/>
<path d="M8.62864 33.8123C8.49128 33.9649 8.38712 34.1444 8.32276 34.3393C8.32276 34.3864 8.29452 34.4664 8.32276 34.4899C8.35099 34.5135 8.42629 34.4899 8.49687 34.4429C8.54412 34.4141 8.58968 34.3827 8.63334 34.3487C8.69777 34.287 8.77066 34.2347 8.84982 34.1935C8.81687 34.2405 9.47099 33.8123 9.89452 33.5487C10.3181 33.2852 10.8357 32.9699 11.3063 32.7017C12.2475 32.1464 13.2404 31.6617 14.2239 31.1723C15.1133 30.7629 15.9886 30.3158 16.9063 29.944C17.2028 29.8264 17.4945 29.7087 17.8004 29.6146C18.1063 29.5205 18.4216 29.4405 18.7416 29.3605C19.064 29.303 19.3891 29.2621 19.7157 29.2382C19.7987 29.2311 19.8821 29.2311 19.9651 29.2382L20.2192 29.2993L20.7181 29.4358C21.1228 29.5676 21.0333 29.7229 20.7181 30.0429C20.5628 30.2076 20.351 30.424 20.1345 30.6593C19.9223 30.8804 19.6564 31.0425 19.3628 31.1299C18.8404 31.3182 18.3228 31.5205 17.7957 31.7605C17.2686 32.0005 16.7322 32.2311 16.191 32.4382C15.1181 32.9087 14.0404 33.4735 12.9392 34.0146C12.6145 34.184 12.2851 34.3535 11.9604 34.5464C11.6357 34.7393 11.3298 34.9464 11.0192 35.1535L10.031 35.8452L8.47334 36.9793L7.94629 37.3605L7.75805 37.4782C7.70629 37.4782 7.65452 37.5158 7.60276 37.5346L7.29687 37.6523C7.20319 37.6921 7.10735 37.7267 7.00982 37.7558L6.77923 37.7935C6.64336 37.8244 6.50446 37.8402 6.36511 37.8405C6.27497 37.8384 6.18649 37.8158 6.10629 37.7746C6.00839 37.7205 5.92705 37.6408 5.87099 37.544C5.69658 37.1979 5.62165 36.8102 5.65452 36.424C5.68799 35.923 5.78444 35.4281 5.94158 34.9511C6.05923 34.5935 6.19099 34.2264 6.34629 33.864L6.79334 32.8335C7.02393 32.3629 7.26393 31.8923 7.51334 31.4217C8.27755 30.0158 9.11964 28.6537 10.0357 27.3417L11.0475 25.7982C11.3701 25.2718 11.727 24.7672 12.1157 24.2876C12.2898 24.0805 12.4498 23.864 12.6428 23.6664C12.881 23.3838 13.1825 23.1613 13.5228 23.017C13.771 22.9599 14.0313 22.9881 14.2616 23.097C14.3715 23.1327 14.4784 23.1767 14.5816 23.2287C14.7322 23.3182 14.7792 23.4876 14.7745 23.7276C14.772 24.0344 14.6875 24.3349 14.5298 24.5982L13.7251 25.9817C13.4616 26.4523 13.1369 26.8617 12.8404 27.304C12.2381 28.184 11.631 29.0782 11.0428 29.9864C10.5879 30.6484 10.1471 31.3229 9.7204 32.0099C9.50864 32.3535 9.30629 32.7017 9.10864 33.0499L8.82158 33.5817L8.69452 33.8217L8.62864 33.8123Z" fill="#8C2155"/>
</svg>
