<svg width="48" height="48" viewBox="0 0 48 48" fill="none" xmlns="http://www.w3.org/2000/svg">
<path d="M9.43535 24.8196C9.66437 25.9364 9.88398 27.058 10.0942 28.1843C10.1742 28.5937 10.273 28.9984 10.3342 29.4125C10.5412 30.876 10.6918 32.349 10.7718 33.8313C10.8283 34.4854 10.8236 35.149 10.8424 35.7984C10.8424 36.2172 10.8424 36.6455 10.8001 37.0643C10.7638 37.4873 10.6898 37.9062 10.5789 38.316C10.513 38.5702 10.3624 38.5043 10.2165 38.2643C10.0227 37.9289 9.91592 37.5503 9.90594 37.1631L9.82594 35.9443C9.77418 35.5349 9.72712 35.1302 9.68947 34.7254C9.65182 34.3207 9.60947 33.9066 9.58123 33.4972C9.553 33.0878 9.51065 32.669 9.47771 32.2549C9.35585 31.2362 9.16562 30.2268 8.90829 29.2337C8.673 28.1278 8.43771 27.0125 8.20241 25.9019C8.04712 25.2196 7.89653 24.5325 7.73182 23.8502C7.47771 22.8196 7.26123 21.7702 6.96006 20.749C6.74829 19.9537 6.48947 19.1866 6.25418 18.396C6.20712 18.2219 6.14594 18.0525 6.113 17.8737C6.08006 17.6949 6.07535 17.5631 6.07065 17.4407C6.07319 17.3368 6.09062 17.2338 6.12241 17.1349C6.16662 16.9839 6.26131 16.8527 6.39065 16.7631C6.44366 16.7177 6.50032 16.6768 6.56006 16.6407C6.74359 16.5466 6.993 16.7819 7.25182 17.2196C7.55771 17.8831 7.78829 18.5796 8.04241 19.2902C8.15535 19.6478 8.273 20.0054 8.39065 20.3631L8.67771 21.469C8.96006 22.5749 9.21418 23.6902 9.473 24.8102L9.43535 24.8196Z" fill="#8C2155"/>
<path d="M15.1812 13.4548C12.4675 14.3471 9.83126 15.4598 7.29888 16.7818L6.97418 16.9653C6.93174 16.9877 6.89086 17.0128 6.85182 17.0406C6.82359 17.0736 6.753 17.0924 6.77182 17.1395L6.82359 17.2712C6.86123 17.3606 6.82359 17.2995 6.95065 17.6712C7.50594 19.5536 7.92006 21.3889 8.32006 23.2524C8.72006 25.1159 9.073 26.9748 9.3977 28.843C9.68006 30.5042 9.96712 32.17 10.2495 33.8171C10.5883 35.9348 10.9554 38.0853 10.8001 40.2783C10.753 40.9653 10.3295 40.8571 9.91535 40.3112C9.34164 39.5106 8.96735 38.5845 8.82359 37.61C8.193 33.3748 7.21888 29.1912 6.50829 24.9042C6.2777 23.6759 5.98594 22.4524 5.64712 21.2336C5.46829 20.6312 5.29418 20.0148 5.09653 19.4218C5.00241 19.1253 4.913 18.8195 4.80476 18.5324L4.64006 18.0618C4.55535 17.7983 4.44241 17.5536 4.353 17.3042L4.28241 16.73L4.23535 16.3395L4.32947 16.3677V16.2783L4.353 16.1889C4.36458 16.1267 4.38859 16.0675 4.42359 16.0148C4.6006 15.7911 4.81373 15.5987 5.05418 15.4453C5.30829 15.2806 5.56712 15.1159 5.82594 14.9748L6.33888 14.6453C7.00241 14.2736 7.67535 13.93 8.353 13.6006C9.70359 12.9418 11.0824 12.3442 12.4754 11.7889C14.1883 11.1112 15.9342 10.5089 17.6989 9.9724C20.372 9.17473 23.0906 8.5383 25.8401 8.06652C26.9036 7.87828 27.9577 7.68063 29.0165 7.50652C30.0754 7.32201 31.1437 7.19632 32.2165 7.13005C32.6871 7.10181 33.1577 7.05946 33.6283 7.05946C34.005 7.05419 34.3814 7.08254 34.753 7.14416C35.0104 7.18507 35.2627 7.25289 35.5059 7.34652C35.8538 7.478 36.1338 7.74443 36.2824 8.08534C36.3673 8.22715 36.4382 8.37687 36.4942 8.5324C36.6118 9.02652 35.8824 9.37005 34.6495 9.56299C31.0118 10.0712 27.2659 10.4195 23.4965 11.21C20.6882 11.788 17.9226 12.5569 15.2189 13.5112L15.1812 13.4548Z" fill="#8C2155"/>
<path d="M31.6095 34.9374C29.9718 35.1774 28.3154 35.4832 26.7059 35.8785C26.113 36.0244 25.5389 36.2315 24.9506 36.3868C23.9059 36.6409 22.8612 36.9279 21.8212 37.2197C20.7812 37.5115 19.7318 37.7985 18.7059 38.1609C17.7883 38.4574 16.8942 38.8244 16.0189 39.2009C14.8896 39.701 13.7277 40.1239 12.5412 40.4668C12.1648 40.5703 12.1318 40.3774 12.3201 40.0244C12.6052 39.4819 13.0089 39.0107 13.5012 38.6456L14.3059 38.1091L14.7059 37.8409L15.1342 37.6244C15.6989 37.3327 16.2777 37.0644 16.8565 36.8009C18.024 36.2723 19.2251 35.8211 20.4518 35.4503C21.9389 35.0503 23.4118 34.415 24.9177 33.9585C26.5742 33.4644 28.2589 33.0456 29.953 32.6832C30.9977 32.4574 32.0518 32.2738 33.1059 32.095C34.7059 31.8315 36.3248 31.6668 37.9483 31.5491L39.8307 31.375C40.1507 31.3421 40.4754 31.3374 40.8001 31.3138C41.1248 31.2903 41.4495 31.3138 41.7836 31.3797C42.0796 31.4032 42.3737 31.4472 42.6636 31.5115C43.0826 31.5833 43.4727 31.7726 43.7883 32.0574C43.9832 32.2784 44.0633 32.578 44.0048 32.8668C43.9946 33.0148 43.9694 33.1615 43.9295 33.3044C43.8468 33.5212 43.6756 33.6924 43.4589 33.775C43.2047 33.8842 42.9308 33.9403 42.6542 33.9397C42.1836 33.9397 41.713 33.9868 41.2048 34.0338C40.7038 34.0999 40.1994 34.1376 39.6942 34.1468C38.6683 34.1985 37.6001 34.2738 36.5177 34.3868C34.9083 34.5232 33.2612 34.7162 31.6236 35.0032L31.6095 34.9374Z" fill="#8C2155"/>
<path d="M33.186 22.1187C31.9365 23.5461 30.7631 25.0384 29.6707 26.5893C29.2707 27.1587 28.946 27.7704 28.5742 28.3446L28.4424 28.5516L28.273 28.8199C28.1224 29.0693 27.9907 29.3375 27.8401 29.5728C27.4879 29.7529 27.1469 29.954 26.8189 30.1752C26.7894 30.1982 26.7579 30.2187 26.7248 30.2363H26.3389C26.1601 30.2363 25.9154 30.2363 25.7083 30.2363L25.5107 30.1657C25.4447 30.1164 25.3818 30.0629 25.3224 30.0057L24.9554 29.6857L24.593 29.3657C24.4938 29.2563 24.3868 29.154 24.273 29.0599L23.4448 28.3399L21.8071 26.7869C21.0024 26.0199 20.1648 25.281 19.346 24.5422C18.8236 24.0716 18.2824 23.601 17.7648 23.1304C17.2471 22.6599 16.753 22.1752 16.2495 21.6575C15.9436 21.3469 16.0754 21.2575 16.4895 21.3281C17.1435 21.4549 17.7697 21.6971 18.3389 22.0434C19.5624 22.8434 20.7436 23.681 21.8965 24.5516C23.0495 25.4222 24.146 26.3587 25.2236 27.2904L25.5012 27.521C25.5624 27.5869 25.5577 27.5916 25.5907 27.6246L25.6707 27.7093L25.713 27.7516C25.713 27.7516 25.746 27.8269 25.7601 27.8599C25.8087 27.8681 25.8561 27.8823 25.9012 27.9022L25.9718 27.954H26.0095C26.0095 27.954 26.0095 27.954 26.0095 27.9163C26.0471 27.8269 26.0989 27.7375 26.1412 27.6434C26.1412 27.6434 26.5695 26.8669 26.8801 26.3916C27.9561 24.7114 29.1217 23.0902 30.3718 21.5352C31.1342 20.594 31.9342 19.6528 32.753 18.7352C34.0084 17.359 35.339 16.0535 36.7389 14.8246C37.2848 14.354 37.8118 13.8599 38.3624 13.3893C38.9195 12.9049 39.5214 12.4747 40.1601 12.1046C40.4336 11.9323 40.7164 11.7752 41.0071 11.634C41.3987 11.418 41.8355 11.2971 42.2824 11.281C42.57 11.3023 42.8359 11.4421 43.0165 11.6669C43.1123 11.7635 43.2004 11.8673 43.2801 11.9775C43.4965 12.3493 43.1765 12.8434 42.546 13.3046C41.6048 13.9728 40.7436 14.7963 39.8071 15.5399C38.8707 16.2834 37.9812 17.1446 37.0918 18.0293C36.4424 18.6928 35.7789 19.3563 35.1342 20.0434C34.4895 20.7304 33.8589 21.4552 33.2518 22.1752L33.186 22.1187Z" fill="#8C2155"/>
</svg>
