<svg width="109" height="33" viewBox="0 0 109 33" fill="none" xmlns="http://www.w3.org/2000/svg">
<path d="M2.65196 26.0005C0.951956 26.0005 -4.39435e-05 24.9465 -4.39435e-05 23.6205C-4.39435e-05 22.2945 0.951956 21.2405 2.65196 21.2405C4.35196 21.2405 5.30396 22.2945 5.30396 23.6205C5.30396 24.9465 4.35196 26.0005 2.65196 26.0005Z" fill="#EE351D"/>
<path d="M23.8903 25.7285H6.24427V1.52052H23.8903V5.29452H10.8683V11.6185H22.8023V15.1545H10.8683V21.9545H23.8903V25.7285ZM39.9906 25.7285H35.6046V14.9845C35.6046 12.6045 34.7546 11.4145 32.6126 11.4145C30.3006 11.4145 28.8046 13.0805 28.8046 15.9365V25.7285H24.4186V8.18451H28.6006V11.0405C29.5526 9.17052 31.1166 7.84451 33.9726 7.84451C37.9846 7.84451 39.9906 9.88451 39.9906 14.1345V25.7285ZM48.1764 25.0485C43.4504 25.0485 40.4584 21.6145 40.4584 16.4465C40.4584 11.2785 43.4504 7.84451 48.1764 7.84451C51.1004 7.84451 52.8344 9.13651 53.7864 11.1765V8.18451H57.9684V24.3005C57.9684 29.7405 55.0444 32.7325 49.2984 32.7325C44.0284 32.7325 41.4104 30.2165 41.4104 26.4425H45.5244C45.7964 28.6525 47.1224 29.8425 49.5024 29.8425C52.0864 29.8425 53.5824 28.4485 53.5824 25.5245V22.0565C52.5964 23.9605 50.8284 25.0485 48.1764 25.0485ZM49.1964 21.9205C51.8144 21.9205 53.5824 20.0845 53.5824 16.4465C53.5824 12.8085 51.8144 10.9725 49.1964 10.9725C46.6124 10.9725 44.8444 12.8085 44.8444 16.4465C44.8444 20.0845 46.6124 21.9205 49.1964 21.9205ZM63.5058 25.7285H59.1198V8.18451H63.5058V25.7285ZM61.3298 5.56651C59.6978 5.56651 58.7798 4.58051 58.7798 3.28851C58.7798 1.99652 59.6978 1.01051 61.3298 1.01051C62.9618 1.01051 63.8458 1.99652 63.8458 3.28851C63.8458 4.58051 62.9618 5.56651 61.3298 5.56651ZM80.2222 25.7285H75.8362V14.9845C75.8362 12.6045 74.9862 11.4145 72.8442 11.4145C70.5322 11.4145 69.0362 13.0805 69.0362 15.9365V25.7285H64.6502V8.18451H68.8322V11.0405C69.7842 9.17052 71.3482 7.84451 74.2042 7.84451C78.2162 7.84451 80.2222 9.88451 80.2222 14.1345V25.7285ZM89.5979 26.0685C83.8859 26.0685 80.6899 22.4985 80.6899 16.9565C80.6899 11.5505 83.7499 7.84451 89.3939 7.84451C95.0719 7.84451 98.1319 11.5845 98.1319 16.7525C98.1319 17.1265 98.0979 17.4665 98.0639 17.8745H85.0759C85.2119 21.4445 86.9119 23.0765 89.5979 23.0765C91.7739 23.0765 93.2019 21.9885 93.7119 20.1865H97.7579C97.0099 23.7905 94.3239 26.0685 89.5979 26.0685ZM89.3939 10.8365C86.9799 10.8365 85.4499 12.2305 85.0759 15.0185H93.7459C93.3719 12.2305 91.8079 10.8365 89.3939 10.8365ZM103.082 10.6485C99.7361 10.6485 97.5737 8.48611 97.5737 5.32411C97.5737 2.16211 99.7361 -0.000286751 103.082 -0.000286751C106.427 -0.000286751 108.569 2.16211 108.569 5.32411C108.569 8.48611 106.427 10.6485 103.082 10.6485ZM103.082 9.68972C105.795 9.68972 107.488 7.93532 107.488 5.32411C107.488 2.71291 105.795 0.958514 103.082 0.958514C100.348 0.958514 98.6549 2.71291 98.6549 5.32411C98.6549 7.93532 100.348 9.68972 103.082 9.68972ZM105.305 4.20211C105.305 4.85491 104.979 5.30371 104.367 5.48731C104.938 5.63011 105.224 6.01771 105.224 6.60931V7.44571C105.224 7.67011 105.265 7.85371 105.305 7.97611H104.143C104.081 7.83331 104.041 7.67011 104.041 7.44571V6.71131C104.041 6.05851 103.633 5.89531 103.123 5.89531H102.286V7.97611H101.083V2.67211H103.551C104.673 2.67211 105.305 3.26371 105.305 4.20211ZM104.102 4.28371C104.102 3.79411 103.857 3.59011 103.245 3.59011H102.286V4.99771H103.245C103.857 4.99771 104.102 4.79371 104.102 4.28371Z" fill="white"/>
</svg>
