<svg width="23" height="18" viewBox="0 0 23 18" fill="none" xmlns="http://www.w3.org/2000/svg">
<path d="M13.7058 18C8.06411 18 4.90747 14.4739 4.90747 9C4.90747 3.66045 7.92978 0 13.5043 0C19.1123 0 22.1347 3.69403 22.1347 8.79851C22.1347 9.16791 22.1011 9.50373 22.0675 9.90672H9.23945C9.37378 13.4328 11.0528 15.0448 13.7058 15.0448C15.855 15.0448 17.2654 13.9701 17.7691 12.1903H21.7653C21.0265 15.75 18.3736 18 13.7058 18ZM13.5043 2.95522C11.12 2.95522 9.60885 4.33209 9.23945 7.08582H17.8027C17.4333 4.33209 15.8885 2.95522 13.5043 2.95522Z" fill="white"/>
<path d="M2.61934 17.9328C0.940275 17.9328 0 16.8918 0 15.5821C0 14.2724 0.940275 13.2314 2.61934 13.2314C4.2984 13.2314 5.23868 14.2724 5.23868 15.5821C5.23868 16.8918 4.2984 17.9328 2.61934 17.9328Z" fill="#EE351D"/>
</svg>
